<svg xmlns="http://www.w3.org/2000/svg" viewBox="0 0 177.1 139.1">
<style type="text/css">
	
		.st0{fill-rule:evenodd;clip-rule:evenodd;fill:#2C2E73;fill-opacity:0.9091;stroke:#FFFFFF;stroke-width:8.21;stroke-linecap:round;stroke-linejoin:round;stroke-opacity:1.114210e-02;}
	
		.st1{fill-rule:evenodd;clip-rule:evenodd;fill:#2C2E73;fill-opacity:0.9091;stroke:#FFFFFF;stroke-width:10.1474;stroke-linecap:round;stroke-linejoin:round;stroke-opacity:1.114210e-02;}
	
		.st2{fill-rule:evenodd;clip-rule:evenodd;fill:#2C2E73;fill-opacity:0.9091;stroke:#FFFFFF;stroke-width:12.5163;stroke-linecap:round;stroke-linejoin:round;stroke-opacity:1.114210e-02;}
	
		.st3{fill-rule:evenodd;clip-rule:evenodd;fill:#2C2E73;fill-opacity:0.9091;stroke:#FFFFFF;stroke-width:9.1473;stroke-linecap:round;stroke-linejoin:round;stroke-opacity:1.114210e-02;}
	
		.st4{fill-rule:evenodd;clip-rule:evenodd;fill:#2C2E73;fill-opacity:0.9091;stroke:#FFFFFF;stroke-width:9.4785;stroke-linecap:round;stroke-linejoin:round;stroke-opacity:1.114210e-02;}
	
		.st5{fill-rule:evenodd;clip-rule:evenodd;fill:#2C2E73;stroke:#FFFFFF;stroke-width:10.1572;stroke-linecap:round;stroke-linejoin:round;stroke-opacity:1.114210e-02;}
	
		.st6{fill-rule:evenodd;clip-rule:evenodd;fill:#2C2E73;stroke:#FFFFFF;stroke-width:10.9052;stroke-linecap:round;stroke-linejoin:round;stroke-opacity:1.114210e-02;}
	
		.st7{fill-rule:evenodd;clip-rule:evenodd;fill:#F1CF00;fill-opacity:0.9091;stroke:#FFFFFF;stroke-width:8.21;stroke-linecap:round;stroke-linejoin:round;stroke-opacity:1.114210e-02;}
	
		.st8{fill-rule:evenodd;clip-rule:evenodd;fill:#F1CF00;fill-opacity:0.9091;stroke:#FFFFFF;stroke-width:10.1474;stroke-linecap:round;stroke-linejoin:round;stroke-opacity:1.114210e-02;}
	
		.st9{fill-rule:evenodd;clip-rule:evenodd;fill:#F1CF00;fill-opacity:0.9091;stroke:#FFFFFF;stroke-width:12.5163;stroke-linecap:round;stroke-linejoin:round;stroke-opacity:1.114210e-02;}
	
		.st10{fill-rule:evenodd;clip-rule:evenodd;fill:#F1CF00;fill-opacity:0.9091;stroke:#FFFFFF;stroke-width:9.1473;stroke-linecap:round;stroke-linejoin:round;stroke-opacity:1.114210e-02;}
	
		.st11{fill-rule:evenodd;clip-rule:evenodd;fill:#F1CF00;fill-opacity:0.9091;stroke:#FFFFFF;stroke-width:9.4785;stroke-linecap:round;stroke-linejoin:round;stroke-opacity:1.114210e-02;}
	
		.st12{fill-rule:evenodd;clip-rule:evenodd;fill:#F1CF00;stroke:#FFFFFF;stroke-width:10.1572;stroke-linecap:round;stroke-linejoin:round;stroke-opacity:1.114210e-02;}
	
		.st13{fill-rule:evenodd;clip-rule:evenodd;fill:#F1CF00;stroke:#FFFFFF;stroke-width:10.9052;stroke-linecap:round;stroke-linejoin:round;stroke-opacity:1.114210e-02;}
	
		.st14{fill-rule:evenodd;clip-rule:evenodd;fill:#046309;fill-opacity:0.9091;stroke:#FFFFFF;stroke-width:8.21;stroke-linecap:round;stroke-linejoin:round;stroke-opacity:1.114210e-02;}
	
		.st15{fill-rule:evenodd;clip-rule:evenodd;fill:#046309;fill-opacity:0.9091;stroke:#FFFFFF;stroke-width:10.1474;stroke-linecap:round;stroke-linejoin:round;stroke-opacity:1.114210e-02;}
	
		.st16{fill-rule:evenodd;clip-rule:evenodd;fill:#046309;fill-opacity:0.9091;stroke:#FFFFFF;stroke-width:12.5163;stroke-linecap:round;stroke-linejoin:round;stroke-opacity:1.114210e-02;}
	
		.st17{fill-rule:evenodd;clip-rule:evenodd;fill:#046309;fill-opacity:0.9091;stroke:#FFFFFF;stroke-width:9.1473;stroke-linecap:round;stroke-linejoin:round;stroke-opacity:1.114210e-02;}
	
		.st18{fill-rule:evenodd;clip-rule:evenodd;fill:#046309;fill-opacity:0.9091;stroke:#FFFFFF;stroke-width:9.4785;stroke-linecap:round;stroke-linejoin:round;stroke-opacity:1.114210e-02;}
	
		.st19{fill-rule:evenodd;clip-rule:evenodd;fill:#046309;stroke:#FFFFFF;stroke-width:10.1572;stroke-linecap:round;stroke-linejoin:round;stroke-opacity:1.114210e-02;}
	
		.st20{fill-rule:evenodd;clip-rule:evenodd;fill:#046309;stroke:#FFFFFF;stroke-width:10.9052;stroke-linecap:round;stroke-linejoin:round;stroke-opacity:1.114210e-02;}
</style>
<g>
	<path id="path7833" class="st0" d="M48.1,8.4c0,0.1,0.1,0.2,0,0.4c-0.2,0.6-1.8,1.7-2.4,2.2c-3.2,2.5-6.9,4.7-10.9,6.7
		c-1,0.5-2,0.9-3,1.4c-0.9,0.4-1.8,0.8-2.8,1.2c-0.4,0.2,1.7-0.5,1.2-0.6c-0.8,0-1.6,0.4-2.4,0.5c-0.7,0.1-1.4,0.3-2.1,0.2
		c-1.6,0-2.4-0.4-3.7-0.9c-0.5-0.3-1-0.6-1.4-0.9c-1.2-0.9-1.9-2-2.2-3.1c-0.2-0.9-0.1-1.2,0-2.1c0.2-0.4,0.4-0.8,0.6-1.1
		c0.3-0.4,0.7-0.7,1.1-1.1c1.2-1,1.8-1.3,3.5-2c0.8-0.3,1.6-0.7,2.5-0.9c0.5-0.1-0.7,0.4-1,0.6C30.2,7.7,35.6,7.2,41,7
		c3-0.1,6.1-0.3,9.1,0.1c0.4,0.1,0.9,0.1,1.3,0.2c1.5,0.3,2.9,0.8,4.2,1.4C56.2,9,57,9.6,57.5,9.9c1.4,1,2.7,2.1,4.3,3
		c0.4,0.2,0.8,0.5,1.3,0.6c0.6,0.2,1.2,0.4,1.7,0.6c0.7,0.2,1.3,0.4,2,0.5c0.9,0.2,1.7,0.3,2.6,0.4c2.9,0.4,5.7,0.5,8.7,0.4
		c0.9,0,1.7-0.1,2.6-0.1c0.8-0.1,1.5-0.1,2.3-0.2c5.2-0.8,10.3-3,14.8-4.6c1.8-1,1-0.5,2.4-1.6l-4.8,1.3l0,0c-1.3,1-0.6,0.5-2.3,1.4
		c0.8-0.3,1.6-0.7,2.5-0.8c0.8-0.1-1.4,0.5-2.1,0.8c-2.8,0.9-5.8,1.7-9,2c-0.9,0.1-1.8,0.1-2.7,0.2c-4.4,0.1-8.8-0.2-12.8-1.3
		c-1.3-0.5-1.7-0.6-2.8-1.2c-1.6-0.9-2.8-2-4.2-3c-0.9-0.6-1.7-1.3-2.8-1.8c-1-0.4-2.3-0.7-3.4-1c-0.5-0.1-0.9-0.2-1.4-0.2
		c-0.8-0.1-2.6-0.2-3.3-0.2c-0.6,0-1.2,0-1.8,0c-2,0.1-2.3,0.1-4.3,0.1c-5.5,0.3-11,0.8-16.2,2c-3.2,1-8.8,2.5-11.7,4.2
		c-0.8,0.5-2.1,1.6-2.6,2.3c-0.3,0.4-0.5,0.8-0.7,1.2c-0.1,1-0.2,1.2,0.1,2.2c0.4,1.2,1.2,2.3,2.4,3.2c0.4,0.3,1,0.6,1.5,0.9
		c1.3,0.5,2.4,1,4,1c0.8,0,1.5-0.2,2.3-0.3c4.3-0.7,8.1-2.3,11.7-3.9c1-0.5,2-0.9,2.9-1.4c4.2-2.1,8.1-4.4,11.6-6.9
		c0.4-0.3,0.9-0.6,1.3-1c0.8-0.6,1.6-1.2,1.6-2L48.1,8.4L48.1,8.4z"/>
	<path id="path7835" class="st1" d="M48.7,13.5c-1.9,1.3-4.3,2.4-6.8,3.5c-2.7,1.2-5.7,2.4-7.3,3.8c-0.2,0.2-0.4,0.5-0.6,0.7
		c-0.6,1-0.8,2.1-0.4,3.1c0.2,0.6,0.6,1,1,1.6c1.1,1.6,3.3,3,5.2,4.5c1.4,1.1,3,2.3,3.2,3.6c0,0.3,0,0.5-0.1,0.8
		c-0.5,1.1-1.4,1.7-3.9,2.4c-0.5,0.1-2.2,0.5-1.6,0.4c1.8-0.4,3.6-0.8,5.4-1.2c-4.9,0.7-10.1,1-15.3,1.2c-1.7,0.1-3.3,0-5-0.2
		l-7.4,1.8l0,0c1.9,0.2,3.5,0.3,5.5,0.2c5.2-0.2,10.4-0.6,15.4-1.1c3.6-0.7,11.3-1.7,13.6-3.5c0.7-0.5,0.7-0.9,1-1.5
		c0-0.3,0.1-0.5,0-0.8c-0.2-1.3-2-2.5-3.4-3.6c-1.9-1.4-4.2-2.8-5.2-4.4c-1-1.5-1.5-3-0.3-4.5c0.6-0.6,0.6-0.8,1.5-1.3
		c1.6-1.1,3.9-2.1,6.1-3c2.7-1.2,5.3-2.4,7.8-3.7L48.7,13.5L48.7,13.5z"/>
	<path id="path7837" class="st0" d="M29,25.5c0.2,0,0.3-0.1,0.5-0.1c0.6-0.2,1.6-0.6,2.2-0.7c1.6-0.5,3.3-0.8,5-1.2
		c2.1-0.4,4.3-0.7,6.5-0.7c0.4,0,0.7,0,1.1,0.1c2.2,0.2,3,1,4.2,2c1,0.9,1.9,1.9,2.9,2.7c0.9,0.7,1.8,0.6,3.1,0.4
		c0.6-0.2,0.3-0.1,0.9-0.2l4.4-2.2l0,0c-0.5,0.2-0.2,0.1-0.9,0.3c-0.6,0.2-1.6,0.5-2.3,0.2c-0.2-0.1-0.3-0.1-0.4-0.2
		c-1.1-0.8-2-1.8-3.1-2.7C51.8,22,51,21.3,48.6,21c-0.4,0-0.8-0.1-1.2-0.1c-2.3-0.1-4.6,0.3-6.8,0.7c-1.6,0.3-3.3,0.7-4.9,1.1
		c-1,0.3-1,0.3-1.9,0.6c-0.1,0-0.3,0.1-0.4,0.1L29,25.5L29,25.5z"/>
	<path id="path7885" class="st0" d="M55.7,31.3c0.7,0.1,1.2,0.4,1.7,0.6c0.6,0.4,1,0.8,1,1.4c-0.2,1.1-0.6,2.2-1.1,3.3
		c-0.5,0.8-1.3,1.4-1.9,2.2c-0.3,0.3-0.6,0.9-0.8,1.2c-0.5,0.7-0.6,1.5-1.3,2.1l3.1-2.2l0,0c0.5-0.7,0.7-1.4,1.1-2.1
		c0.3-0.5,0.5-0.7,0.9-1.2c0.6-0.7,1.4-1.4,1.8-2.2c0.5-1.1,0.9-2.3,1.1-3.4c-0.1-0.7-0.5-1.1-1.2-1.5c-0.5-0.3-1.1-0.6-1.8-0.7
		L55.7,31.3L55.7,31.3z"/>
	<path id="path7889" class="st2" d="M71.2,30.1c-1.3-0.1-2.6-0.1-3.9,0c-4.6,0.1-4.3,0.7-9.7,2.5c-0.2,0.3-0.5,0.5-1,0.6
		c-0.2,0.1-0.6,0.2-0.5,0.1c5.9-1.9,8.1-2.4,5.5-1.8c-0.8,0.1-1.6,0.2-2.4,0.3l-6,2.4l0,0c0.8-0.1,1.6-0.2,2.5-0.3
		c3.6-0.6,6.8-1.6,8.9-3.1c-2,0.6-4,1.3-6.1,1.9c-0.1,0,0.2-0.1,0.4-0.2c0.7-0.2,1.6-0.2,2.4-0.2c1.2,0,2.5-0.1,3.7,0L71.2,30.1
		L71.2,30.1z"/>
	<path id="path7915" class="st3" d="M110,26.4c-0.1,0-0.1,0.1-0.2,0.1c-0.2,0.1-0.8,0.3-1,0.4c-0.3,0.1-1.1,0.2-0.8,0.2
		c16-3.7,22.8-5.1,15.5-3.6c-2.9,0.6-6,0.9-9.1,1.1c-2.9,0.2-5.7,0.2-8.6,0.2c-1.1-0.1-2.3,0-3.4-0.1c-0.6,0-0.9-0.1-1.4-0.1
		c-0.8-0.1-1.4-0.3-2-0.5l-18.6,4.6l0,0c0.8,0.3,1.6,0.6,2.7,0.8c1.8,0.3,3.7,0.4,5.6,0.3c3-0.1,6.1-0.1,9.1-0.2
		c3.2-0.2,6.4-0.4,9.4-0.9c8.3-1.2,1.8-0.2,20.7-4.6c0.9-0.2,1.5-0.5,2.4-0.7c0.2,0,0.4-0.1,0.6-0.1L110,26.4L110,26.4z"/>
	<path id="path7919" class="st0" d="M143.9,23.4c0.1,0.2,0,0.3-0.2,0.4c4.4-1.7,8.7-3.5,13.1-5.1c0.1,0-0.1,0.2-0.3,0.2
		c-0.1,0-0.3,0-0.4,0.1c-1.6,0-3.2-0.1-4.7-0.3c-1.2-0.1-2.4-0.3-3.5-0.6c-0.5-0.2-1.2-0.5-1.7-0.7c-1.8-0.8-3.1-0.8-5.2-0.6
		c-1.6,0.1-3.2,0.4-4.8,0.6c-0.5,0-1.2,0.3-1.7,0.1l-13.5,5l0,0c0.9,0.6,1.6,0.9,3,0.6c1.6-0.2,3.2-0.6,4.9-0.7
		c0.8-0.1,1.6-0.2,2.4-0.3c0.8,0,1.6,0.1,2.3,0.3c1.1,0.4,0.7,0.2,1.8,0.7c1.1,0.4,2.2,0.9,3.6,1c0.7,0,1,0,1.7,0.1
		c0.9,0.1,1.8,0.3,2.7,0.4c0.2,0,0.3,0,0.5,0.1c0.2,0,0.4,0.2,0.6,0.2c24.2-8.8,12.6-1.9,13.7-6L143.9,23.4L143.9,23.4z"/>
	<path id="path7923" class="st0" d="M108.7,37.8c0.2,0,0.3,0.1,0.5,0.1s0.5,0,0.7,0.1c0.5,0,0.9,0.1,1.4,0.2c0.4,0,1.6,0.1,1.9,0.1
		c0.8,0,1.7,0.1,2.5,0.1c0.4,0,0.7,0,1.1,0c0.9,0,1.1,0,2,0c1.3,0,2.6,0,3.9,0c0.8,0.1,1.3,0.1,2,0.3c0.3,0.1,0.7,0.1,1,0.2
		c0.7,0.1,1.8,0.2,2.6,0.3c1,0.1,2,0.2,3,0.3c1.3,0.2,2.7,0,4-0.1l12.5-5.8l0,0c-0.9,0.1-1.8,0.1-2.7,0.2c-0.2,0-0.5,0.1-0.7,0.1
		c-0.3,0-0.5,0-0.8,0c-2.2,0-4.4-0.1-6.6-0.5c-1.5-0.3-0.6-0.1-2.2-0.4c-0.3-0.1-0.7-0.1-1-0.2c-0.9-0.1-1.9,0-2.9,0
		c-0.8,0-1.2,0-2,0c-0.3,0-0.6,0-0.9,0c-0.9,0-1.7,0-2.6,0c-1.2-0.1-2.4-0.1-3.5-0.5L108.7,37.8L108.7,37.8z"/>
	<path id="path7927" class="st0" d="M135.5,24.3c-0.9,0-1.9,0.1-2.8,0.3c-0.3,0.1-0.5,0.2-0.8,0.2c-1.4,0.6-2.9,1.1-4.3,1.7
		c-0.3,0.1-0.5,0.3-0.7,0.5c-1,0.6-2,1.2-2.9,1.9c-0.5,0.4-1.1,0.8-1.6,1.2c-0.3,0.3-0.6,0.7-0.8,1c-0.2,0.4-0.6,0.9-0.3,1.3
		c0,0.1,0.1,0.1,0.2,0.2c0.1,0.1,0.2,0.1,0.3,0.2l3.6-1.5l0,0c-0.1,0-0.2-0.1-0.2-0.1c-0.5-0.3,0.1-0.9,0.2-1.2
		c0.6-0.8,1.3-1.5,2.3-2.1c1-0.6,1.9-1.3,2.9-1.8c0.3-0.2,1.1-0.5,0.8-0.4c-1,0.2-1.9,0.6-2.8,0.9c0.2-0.1,0.5-0.2,0.7-0.3
		c0.8-0.2,1.7-0.3,2.6-0.3L135.5,24.3L135.5,24.3z"/>
	<path id="path7929" class="st4" d="M100.8,18.5c-0.5,1.5-0.7,3.1-1,4.7c-0.1,1.3-0.5,2.7-0.3,4.1c0,0.2,0.1,0.4,0.1,0.7
		c0.5,1.5,1.5,2.6,2.4,3.8c0.9,1.3,1.8,2.7,2.5,4.2c0.5,0.9,0.7,1.9,0.9,2.9c0,0.4,0.2,0.8,0.2,1.2c0,0.2-0.2,0.4-0.3,0.6
		c-0.8,1.1-1.9,1.9-2.9,2.8c-1.7,1.4-3.2,2.9-4.9,4.3c-0.7,0.7-1.5,1.2-2.1,2l3.5-1.6l0,0c0.6-0.7,1.3-1.2,2-1.9
		c1.6-1.5,3.1-2.9,4.8-4.3c1.1-0.9,2.3-1.8,3.1-3c0.3-0.8,0.2-1.2,0-2c-0.3-1-0.5-2-1.1-2.9c-0.8-1.4-1.7-2.8-2.6-4.2
		c-0.3-0.5-0.6-1-1-1.4c-0.5-0.7-1-1.4-1.2-2.3c-0.3-1.5-0.1-3,0.1-4.5c0.3-1.6,0.5-3.3,1.3-4.7L100.8,18.5L100.8,18.5z"/>
	<path id="path7931" class="st0" d="M87.5,35.8c0,0.7,0.7,0.9,1.7,1.1c1.2,0.3,2.4,0.5,3.7,0.5c1.3-0.5,2.7-0.9,3.9-1.4
		c0.1-0.1,0-0.2-0.1-0.3c-0.2-0.4-0.8-0.8-1.3-1.1c-1.3-0.7-2.7-1.1-4.2-1.7c-1.1-0.3-2.7-0.7-4-0.6c-0.3,0-0.5,0-0.8,0.1
		c-2.4,0.6-5.3,1.5-6.9,2.9c-0.6,0.7,0.1,1.3,0.8,1.8c0.9,0.6,1.8,1.2,2.7,1.8c1.3,0.6,2.4,1.4,3.8,2c1,0.4,2.2,0.5,3.3,0.5
		c1.8-0.2,3.4-0.9,4.8-1.7l-4,1l0,0c-1.9,0.9,4.8-1.6,2.7-0.9c-1.2,0.1-2.2,0.1-3.2-0.3c-1.4-0.5-2.5-1.3-3.8-1.9
		c-0.9-0.6-1.8-1.1-2.7-1.7c-0.7-0.5-1.2-0.8-0.5-1.4c0.3-0.3,0.4-0.3,0.8-0.6c1.1-0.6,3.8-1.5-1.8,0.5c-0.2,0.1,0.4-0.1,0.6-0.2
		c0.2,0,0.5-0.1,0.7-0.1c1.3-0.1,2.7,0.2,3.8,0.5c1.4,0.5,2.8,1,4.1,1.6c0.4,0.3,0.7,0.5,1,0.8c0,0.1,0.1,0.1,0.1,0.2l-0.1,0.1
		c1.2-0.4,2.3-0.8,3.5-1.2c-0.1,0-0.2,0.1-0.4,0.1c-1,0.1-2.3-0.2-3.3-0.4c-0.9-0.2-1.3-0.2-1.3-0.9C91.4,34.5,87.5,35.8,87.5,35.8
		L87.5,35.8z"/>
	<path id="path7933" class="st0" d="M68.4,36c0.8,0.1,1.5,0.3,2.4,0.3c0.2,0,0.4,0,0.6-0.1c3.1-0.7,5.1-1.5,6.5-3.1
		c0.2-0.3,0.6-0.8,0.2-1.1c-0.3-0.2-0.6-0.3-1-0.4c-1.8-0.3-3.7-0.3-5.5-0.1c-1.4,0.2-2.7,0.6-3.9,1c0.1,0.6-4.4,1-4.9,2.2
		c-0.1,0.2,0,0.3,0,0.6c0.9,1.2,2,2.3,3.2,3.4c0.2,0.2,0.4,0.3,0.7,0.5c0.3,0.2,0.6,0.3,1,0.4c1.3,0.6,2.6,1.1,4,1.6s3,0.8,4.6,0.9
		c0.2,0,0.4,0,0.7,0c0.6-0.1,1.1-0.2,1.6-0.4c1.5-0.5,2.9-1.1,4.4-1.6L79,41l0,0c0.9-0.3,1.7-0.6,2.6-0.9c0.4-0.1-0.7,0.3-1.4,0.5
		c-0.2,0-0.4,0-0.6,0c-1.6-0.1-3.2-0.3-4.6-0.8c-1.6-0.5-3.5-1.2-4.8-1.9c-0.2-0.1-0.5-0.3-0.7-0.4c-1.2-1-2.3-2.1-2.9-3.3
		c0-0.2-0.1-0.2,0.1-0.4c0.6-0.8,4.5-1.7-2.3,0.6c1.3-0.4,2.6-0.9,3.9-1.2c1.8-0.2,3.5-0.3,5.3,0c0.1,0,0.6,0.1,0.7,0.2
		c0.3,0.2-0.2,0.7-0.3,0.9c-0.3,0.4-0.7,0.7-1.2,1c-0.2,0.1-0.8,0.4-0.5,0.3c0.9-0.3,4.5-1.5,2.5-0.9c-1.1,0.2-1.7,0.1-2.7-0.1
		L68.4,36L68.4,36z"/>
	<path id="path7949" class="st5" d="M111.5,108.8c-0.5,0.1-1,0.1-1.4,0.2c-0.2,0.1-0.4,0.1-0.6,0.2s-0.4,0.2-0.5,0.3
		c-1.3,0.9-2.6,1.8-3.8,2.8c-0.3,0.2-0.5,1.2-0.6,1.5c0,0.5-0.2,1.1-0.1,1.6c0,0.1,0.3,0.6,0.3,0.8c0.4,0.9,0.8,1.4,1.6,2
		c0.7,0.7,1.4,1.3,2.4,1.7c1,0.3,2.1,0.3,3.1,0.2c0.9,0,1.7-0.2,2.5-0.5l3.2-2.8c-0.8,0.3-1.6,0.5-2.4,0.6c-1,0.1-2,0.2-3,0
		c-0.9-0.3-1.6-0.9-2.3-1.6c-0.6-0.6-1.2-1.2-1.4-1.9c-0.3-0.7-0.3-1.4-0.2-2.2c0-0.1,0-0.1,0.1-0.2c-0.5,0.1-1,0.1-1.5,0.2h-0.1
		c-0.3,0.2-0.5,0.3-0.8,0.5c-0.2,0.1,0.3-0.3,0.4-0.4s0.2-0.1,0.4-0.1c0.7-0.5,1.5-1,2.3-1.5c0.2-0.1-0.2,0.3-0.3,0.5
		c-0.2,0.3-0.2,0.5-0.3,0.7c0.4,0,0.9-0.1,1.3-0.1c0.8,0,1.7-0.1,2.3,0.4c0.6,0.5,1.1,1,1.9,1.4l3.5-2.6c-0.8-0.2-1.3-0.8-1.8-1.3
		c-0.7-0.7-1.6-0.7-2.6-0.6C112.4,108.7,111.9,108.7,111.5,108.8L111.5,108.8z"/>
	<path id="path7941" class="st5" d="M54.4,108.1l-3.9,2c-0.6,1-0.9,2-1.1,3.1c0,1.2,0.9,2.1,1.6,3.1c0.2,0.5,1.4,1.4,1.5,1.9
		c0,0.1,0,0.1-0.1,0.1c-2.9,1.7-5.7,3.7-8.4,5.6c-0.9,0.7-1.7,1.4-2.6,2c-0.2,0.2-0.9,0.6-0.7,0.5c0.9-0.6,1.5-1,2.1-1.4l0.4-0.4
		c1-0.5,0.8-0.4-0.4,0.4l-2.7,2.5c2.9-1.4,5.1-3.5,7.6-5.3c0,0,0,0,0.1,0c-0.4,0.2-0.9,0.6-0.7,0.4c5.1-3.5,1.8-1.2,0.7-0.4
		c0.1-0.1,0.1-0.1,0.2-0.1c0.8-0.5,0.9-0.6,1.8-1.1c2.2-1.3,0.9-0.5,4.9-3.3c0.6-0.4,1.3-0.8,1.5-1.5c0-0.1,0-0.2-0.1-0.3
		c-0.3-0.6-1.3-1.3-1.6-1.8c-0.6-0.9-1.4-1.8-1.4-2.9C53.3,110,53.6,109,54.4,108.1L54.4,108.1z M124.4,100.4l-4,2
		c-1.1,1.5-1.8,3.1-2.5,4.8c-0.6,1.7-1.1,3.4-1.2,5.2c0,0.9,0.1,1.7,0.4,2.5c0.2,0.9,0.9,1.6,1.7,2.2c1,0.6,1.8,1.4,2.6,2.2
		c0.9,0.9,1.7,1,3,1.1c1.5,0,2.9-0.3,4.4-0.6c1.6-0.3,3.1-1,4.5-1.8l3-2.7c-1.3,0.8-2.7,1.5-4.3,1.8c-1.4,0.3-2.8,0.5-4.3,0.6
		c-1.2,0-1.9,0-2.7-0.8c-0.8-0.8-1.7-1.6-2.6-2.3c-0.8-0.5-1.3-1.2-1.5-2s-0.3-1.6-0.3-2.4c0-1.7,0.4-3.4,1-5
		C122.2,103.6,123,101.9,124.4,100.4z M72.3,108.2c-0.7,0.1-1.3,0.4-1.9,0.6c-0.6,0.3-1.3,0.7-2,0.8l-3.3,2.8
		c0.8-0.1,1.5-0.4,2.2-0.8c0.7-0.3,1.5-0.7,2.4-0.8c0.6,0.1,1,0.5,1.4,0.8c0.6,0.6,1.1,1.2,1.5,1.9c0.4,0.8,0.3,1.5-0.1,2.2
		c-0.3,0.6-0.7,1.2-1,1.9c-0.4,0.6-0.5,1.3-0.5,2s0.3,1.1,1.1,1.2c0.5,0,1.1,0.1,1.6,0.1l3.3-2.7c-0.5,0-1-0.1-1.6-0.1
		c-0.7,0-0.7-0.2-0.7-0.8c0-0.7,0.2-1.3,0.6-1.9c0.3-0.6,0.7-1.2,0.9-1.9c0.3-0.9,0.4-1.6-0.1-2.5c-0.4-0.8-0.9-1.5-1.6-2.1
		c-0.5-0.4-1-0.8-1.6-1C72.8,108.2,72.5,108.2,72.3,108.2L72.3,108.2z M62,109.9c-0.2,0-0.4,0.1-0.6,0.1c-0.8,0.1-1.5,0.3-2.3,0.4
		l-3.2,2.9c0.7-0.3,1.5-0.4,2.3-0.5c0.7-0.1,1.5-0.3,2.2,0c0.4,0.3,0.6,0.9,0.8,1.3c0.2,0.6,0.4,1.2,0.7,1.8c0.3,0.5,0.7,1,1,1.5
		c0.2,0.3,0,0.5-0.2,0.8c-0.1,0.2-0.1,0.3-0.2,0.5c-0.2,0.6-0.5,1.1-0.9,1.5c-0.7,0.4-1.2,1-1.7,1.5c-1.3,0.9-0.3,0.2,3.1-2.1
		l-3.1,2.9c3.9-2.6,2.7-1.6,4-2.8c0.5-0.5,1.1-1,1.7-1.5c0.4-0.5,0.7-1.1,0.9-1.6c0.2-0.5,0.5-1,0.2-1.6c-0.3-0.5-0.7-1-1-1.5
		c-0.3-0.6-0.5-1.1-0.7-1.7s-0.5-1.2-1-1.6C63.2,109.9,62.6,109.9,62,109.9L62,109.9z M96.5,110.1c-1.2,0.2-2.3,0.3-3.5,0.5
		c-1.4,0.2-2.8,0.3-4.1,0.7c-1.9,0.7-3.2,1.8-4.9,3.1c-0.1,0.1-0.2,0.2-0.2,0.3c-0.1,0.2-0.2,0.5-0.2,0.7c0,0.1,0,0.3,0.1,0.4
		c0.4,1,1.7,1.6,2.5,2.2c0.3,0.2,1,0.7,1.3,0.9c0.5,0.2,1.6,0.7,2,0.8c4.1,1.6-2-0.8,2.1,0.8c1.1,0.5,2.3,0.9,3.5,1.2
		c0.6,0.1,1,0.2,1.7,0.2c0.5,0,0.9,0,1.4,0c0.3,0,0.7-0.2,0.9-0.3c3.8-2.7,3.3-1.4,3.9-3.1c0.1-0.7,0-1.5-0.5-2.1
		c-0.1-0.1-0.3-0.2-0.4-0.4c-0.9-0.6-2.1-0.8-3.1-1.2c-0.7-0.4-0.7-1.1-1.1-1.7c-0.4-0.4-1-0.5-1.5-0.8l0,0h-0.1c0,0,0,0,0.1,0
		l-3.7,2.3c0,0.1,0.1,0.2,0.1,0.3c0.5,0.2,1,0.3,1.5,0.6c0.4,0.6,0.6,1.4,1.3,1.8c1,0.5,2.1,0.6,3.1,1.2c0.1,0.1,0.2,0.2,0.3,0.3
		c0.1,0.1,0.2,0.3,0.3,0.5c0.2,0,0.5,0,0.8,0.1c0.6,0,1.2,0,1.7-0.2c0.2-0.1,0.4-0.2,0.6-0.4c0.1-0.1-0.2,0.2-0.3,0.3
		c-0.1,0-0.1,0.1-0.2,0.1c-2.8,1.9-3.3,2.7-2.5,1.5c0.1-0.4,0.2-0.9,0-1.3c-0.3,0-0.5-0.1-0.9-0.1c-1.2-0.2-2.4-0.7-3.5-1.1
		c-1.8-0.7-3.8-1.3-5.3-2.5c-0.7-0.5-1.9-1.2-2.2-2c0.8-0.1,1.7-0.2,2.5-0.3c1.1-0.1,2.2-0.3,3.4-0.4L96.5,110.1z M87.8,112.4
		c0.1-0.1-0.2,0.2-0.3,0.2c-0.2,0.2-0.2,0.3-0.3,0.6c0,0.1,0,0.2,0,0.3c0,0,0,0,0,0.1c-0.5,0.1-1,0.2-1.6,0.4
		C84.3,114.6,81.8,116.3,87.8,112.4L87.8,112.4z M53.6,117.5L53.6,117.5c0,0-0.9,0.6-2.9,2c-0.2,0.1,0.4-0.3,0.6-0.4
		c0.6-0.4,0.3-0.2,0.8-0.6c0.1-0.1,0.1-0.1,0.2-0.2l0,0c0.1-0.1,0.2-0.1,0.3-0.2C53.3,117.8,53.6,117.5,53.6,117.5L53.6,117.5z"/>
	<path id="path891" class="st6" d="M37,104.8c2.9,0.8,5.8,1.6,8.7,2.3c3.2,0.8,6.3,1.7,9.6,2c0.6,0.1,1.1,0.1,1.7,0.1
		c1.6,0,3.6,0.3,5.1,0c0.9-0.2,1.2-0.4,2-0.8c2.4-1.5,5-2.9,7.3-4.4c0.1-0.1,1.8-1.9,1.8-1.9c1-1.1,2.1-2.3,3.2-3.4
		c1.2-1.4,2.9-2.6,3.8-4.1c0.5-0.8,0.5-1.3,0.8-2.2c0.1-0.3,0.1-0.7,0.2-1L74.5,95l0,0c-0.1,0.3-0.1,0.6-0.2,0.9
		c-0.3,0.9-0.3,1.1-0.9,2c-1,1.5-2.5,2.7-3.7,4c-1.1,1.1-2.1,2.3-3.2,3.4c-0.3,0.3-0.7,0.7-1,1c-2,1.8-4.4,2.8,4.5-2.3
		c-0.5,0.3-1.1,0.7-1.7,0.9c-1.6,0.5-3.5,0.2-5.2,0.3c-1.1-0.1-2.3-0.1-3.4-0.2c-2.8-0.3-5.4-1-8.1-1.6c-1.7-0.5-2.4-0.7-4-1.3
		c-0.5-0.2-1-0.4-1.5-0.6c-0.7-0.3-1.5-0.5-2.2-1L37,104.8L37,104.8z"/>
</g>
<g>
	<path id="path7833_1_" class="st7" d="M44.8,11.7c0,0.1,0.1,0.2,0,0.4c-0.2,0.6-1.8,1.7-2.4,2.2c-3.2,2.5-6.9,4.7-10.9,6.7
		c-1,0.5-2,0.9-3,1.4c-0.9,0.4-1.8,0.8-2.8,1.2c-0.4,0.2,1.7-0.5,1.2-0.6c-0.8,0-1.6,0.4-2.4,0.5c-0.7,0.1-1.4,0.3-2.1,0.2
		c-1.6,0-2.4-0.4-3.7-0.9c-0.5-0.3-1-0.6-1.4-0.9c-1.2-0.9-1.9-2-2.2-3.1c-0.2-0.9-0.1-1.2,0-2.1c0.2-0.4,0.4-0.8,0.6-1.1
		c0.3-0.4,0.7-0.7,1.1-1.1c1.2-1,1.8-1.3,3.5-2c0.8-0.3,1.6-0.7,2.5-0.9c0.5-0.1-0.7,0.4-1,0.6c5.1-1.2,10.5-1.7,15.9-1.9
		c3-0.1,6.1-0.3,9.1,0.1c0.4,0.1,0.9,0.1,1.3,0.2c1.5,0.3,2.9,0.8,4.2,1.4c0.6,0.3,1.4,0.9,1.9,1.2c1.4,1,2.7,2.1,4.3,3
		c0.4,0.2,0.8,0.5,1.3,0.6c0.6,0.2,1.2,0.4,1.7,0.6c0.7,0.2,1.3,0.4,2,0.5c0.9,0.2,1.7,0.3,2.6,0.4c2.9,0.4,5.7,0.5,8.7,0.4
		c0.9,0,1.7-0.1,2.6-0.1c0.8-0.1,1.5-0.1,2.3-0.2c5.2-0.8,10.3-3,14.8-4.6c1.8-1,1-0.5,2.4-1.6l-4.8,1.3l0,0c-1.3,1-0.6,0.5-2.3,1.4
		c0.8-0.3,1.6-0.7,2.5-0.8c0.8-0.1-1.4,0.5-2.1,0.8c-2.8,0.9-5.8,1.7-9,2c-0.9,0.1-1.8,0.1-2.7,0.2c-4.4,0.1-8.8-0.2-12.8-1.3
		c-1.3-0.5-1.7-0.6-2.8-1.2c-1.6-0.9-2.8-2-4.2-3c-0.9-0.6-1.7-1.3-2.8-1.8c-1-0.4-2.3-0.7-3.4-1c-0.5-0.1-0.9-0.2-1.4-0.2
		c-0.8-0.1-2.6-0.2-3.3-0.2c-0.6,0-1.2,0-1.8,0c-2,0.1-2.3,0.1-4.3,0.1c-5.5,0.3-11,0.8-16.2,2c-3.2,1-8.8,2.5-11.7,4.2
		c-0.8,0.5-2.1,1.6-2.6,2.3c-0.3,0.4-0.5,0.8-0.7,1.2c-0.1,1-0.2,1.2,0.1,2.2c0.4,1.2,1.2,2.3,2.4,3.2c0.4,0.3,1,0.6,1.5,0.9
		c1.3,0.5,2.4,1,4,1c0.8,0,1.5-0.2,2.3-0.3c4.3-0.7,8.1-2.3,11.7-3.9c1-0.5,2-0.9,2.9-1.4c4.2-2.1,8.1-4.4,11.6-6.9
		c0.4-0.3,0.9-0.6,1.3-1c0.8-0.6,1.6-1.2,1.6-2L44.8,11.7L44.8,11.7z"/>
	<path id="path7835_1_" class="st8" d="M45.4,16.8c-1.9,1.3-4.3,2.4-6.8,3.5c-2.7,1.2-5.7,2.4-7.3,3.8c-0.2,0.2-0.4,0.5-0.6,0.7
		c-0.6,1-0.8,2.1-0.4,3.1c0.2,0.6,0.6,1,1,1.6c1.1,1.6,3.3,3,5.2,4.5c1.4,1.1,3,2.3,3.2,3.6c0,0.3,0,0.5-0.1,0.8
		c-0.5,1.1-1.4,1.7-3.9,2.4c-0.5,0.1-2.2,0.5-1.6,0.4c1.8-0.4,3.6-0.8,5.4-1.2c-4.9,0.7-10.1,1-15.3,1.2c-1.7,0.1-3.3,0-5-0.2
		l-7.4,1.8l0,0c1.9,0.2,3.5,0.3,5.5,0.2c5.2-0.2,10.4-0.6,15.4-1.1c3.6-0.7,11.3-1.7,13.6-3.5c0.7-0.5,0.7-0.9,1-1.5
		c0-0.3,0.1-0.5,0-0.8c-0.2-1.3-2-2.5-3.4-3.6c-1.9-1.4-4.2-2.8-5.2-4.4c-1-1.5-1.5-3-0.3-4.5c0.6-0.6,0.6-0.8,1.5-1.3
		c1.6-1.1,3.9-2.1,6.1-3c2.7-1.2,5.3-2.4,7.8-3.7L45.4,16.8L45.4,16.8z"/>
	<path id="path7837_1_" class="st7" d="M25.7,28.8c0.2,0,0.3-0.1,0.5-0.1c0.6-0.2,1.6-0.6,2.2-0.7c1.6-0.5,3.3-0.8,5-1.2
		c2.1-0.4,4.3-0.7,6.5-0.7c0.4,0,0.7,0,1.1,0.1c2.2,0.2,3,1,4.2,2c1,0.9,1.9,1.9,2.9,2.7c0.9,0.7,1.8,0.6,3.1,0.4
		c0.6-0.2,0.3-0.1,0.9-0.2l4.4-2.2l0,0c-0.5,0.2-0.2,0.1-0.9,0.3c-0.6,0.2-1.6,0.5-2.3,0.2c-0.2-0.1-0.3-0.1-0.4-0.2
		c-1.1-0.8-2-1.8-3.1-2.7c-1.3-1.2-2.1-1.9-4.5-2.2c-0.4,0-0.8-0.1-1.2-0.1c-2.3-0.1-4.6,0.3-6.8,0.7c-1.6,0.3-3.3,0.7-4.9,1.1
		c-1,0.3-1,0.3-1.9,0.6c-0.1,0-0.3,0.1-0.4,0.1L25.7,28.8L25.7,28.8z"/>
	<path id="path7885_1_" class="st7" d="M52.4,34.6c0.7,0.1,1.2,0.4,1.7,0.6c0.6,0.4,1,0.8,1,1.4c-0.2,1.1-0.6,2.2-1.1,3.3
		c-0.5,0.8-1.3,1.4-1.9,2.2c-0.3,0.3-0.6,0.9-0.8,1.2c-0.5,0.7-0.6,1.5-1.3,2.1l3.1-2.2l0,0c0.5-0.7,0.7-1.4,1.1-2.1
		c0.3-0.5,0.5-0.7,0.9-1.2c0.6-0.7,1.4-1.4,1.8-2.2c0.5-1.1,0.9-2.3,1.1-3.4c-0.1-0.7-0.5-1.1-1.2-1.5c-0.5-0.3-1.1-0.6-1.8-0.7
		L52.4,34.6L52.4,34.6z"/>
	<path id="path7889_1_" class="st9" d="M67.8,33.4c-1.3-0.1-2.6-0.1-3.9,0c-4.6,0.1-4.3,0.7-9.7,2.5c-0.2,0.3-0.5,0.5-1,0.6
		c-0.2,0.1-0.6,0.2-0.5,0.1c5.9-1.9,8.1-2.4,5.5-1.8c-0.8,0.1-1.6,0.2-2.4,0.3l-6,2.4l0,0c0.8-0.1,1.6-0.2,2.5-0.3
		c3.6-0.6,6.8-1.6,8.9-3.1c-2,0.6-4,1.3-6.1,1.9c-0.1,0,0.2-0.1,0.4-0.2c0.7-0.2,1.6-0.2,2.4-0.2c1.2,0,2.5-0.1,3.7,0L67.8,33.4
		L67.8,33.4z"/>
	<path id="path7915_1_" class="st10" d="M106.7,29.7c-0.1,0-0.1,0.1-0.2,0.1c-0.2,0.1-0.8,0.3-1,0.4c-0.3,0.1-1.1,0.2-0.8,0.2
		c16-3.7,22.8-5.1,15.5-3.6c-2.9,0.6-6,0.9-9.1,1.1c-2.9,0.2-5.7,0.2-8.6,0.2c-1.1-0.1-2.3,0-3.4-0.1c-0.6,0-0.9-0.1-1.4-0.1
		c-0.8-0.1-1.4-0.3-2-0.5L77.1,32l0,0c0.8,0.3,1.6,0.6,2.7,0.8c1.8,0.3,3.7,0.4,5.6,0.3c3-0.1,6.1-0.1,9.1-0.2
		c3.2-0.2,6.4-0.4,9.4-0.9c8.3-1.2,1.8-0.2,20.7-4.6c0.9-0.2,1.5-0.5,2.4-0.7c0.2,0,0.4-0.1,0.6-0.1L106.7,29.7L106.7,29.7z"/>
	<path id="path7919_1_" class="st7" d="M140.6,26.7c0.1,0.2,0,0.3-0.2,0.4c4.4-1.7,8.7-3.5,13.1-5.1c0.1,0-0.1,0.2-0.3,0.2
		c-0.1,0-0.3,0-0.4,0.1c-1.6,0-3.2-0.1-4.7-0.3c-1.2-0.1-2.4-0.3-3.5-0.6c-0.5-0.2-1.2-0.5-1.7-0.7c-1.8-0.8-3.1-0.8-5.2-0.6
		c-1.6,0.1-3.2,0.4-4.8,0.6c-0.5,0-1.2,0.3-1.7,0.1l-13.5,5.1l0,0c0.9,0.6,1.6,0.9,3,0.6c1.6-0.2,3.2-0.6,4.9-0.7
		c0.8-0.1,1.6-0.2,2.4-0.3c0.8,0,1.6,0.1,2.3,0.3c1.1,0.4,0.7,0.2,1.8,0.7c1.1,0.4,2.2,0.9,3.6,1c0.7,0,1,0,1.7,0.1
		c0.9,0.1,1.8,0.3,2.7,0.4c0.2,0,0.3,0,0.5,0.1c0.2,0,0.4,0.2,0.6,0.2c24.2-8.8,12.6-1.9,13.7-6L140.6,26.7L140.6,26.7z"/>
	<path id="path7923_1_" class="st7" d="M105.4,41.1c0.2,0,0.3,0.1,0.5,0.1s0.5,0,0.7,0.1c0.5,0,0.9,0.1,1.4,0.2
		c0.4,0,1.6,0.1,1.9,0.1c0.8,0,1.7,0.1,2.5,0.1c0.4,0,0.7,0,1.1,0c0.9,0,1.1,0,2,0c1.3,0,2.6,0,3.9,0c0.8,0.1,1.3,0.1,2,0.3
		c0.3,0.1,0.7,0.1,1,0.2c0.7,0.1,1.8,0.2,2.6,0.3c1,0.1,2,0.2,3,0.3c1.3,0.2,2.7,0,4-0.1l12.5-5.8l0,0c-0.9,0.1-1.8,0.1-2.7,0.2
		c-0.2,0-0.5,0.1-0.7,0.1c-0.3,0-0.5,0-0.8,0c-2.2,0-4.4-0.1-6.6-0.5c-1.5-0.3-0.6-0.1-2.2-0.4c-0.3-0.1-0.7-0.1-1-0.2
		c-0.9-0.1-1.9,0-2.9,0c-0.8,0-1.2,0-2,0c-0.3,0-0.6,0-0.9,0c-0.9,0-1.7,0-2.6,0c-1.2-0.1-2.4-0.1-3.5-0.5L105.4,41.1L105.4,41.1z"
		/>
	<path id="path7927_1_" class="st7" d="M132.2,27.6c-0.9,0-1.9,0.1-2.8,0.3c-0.3,0.1-0.5,0.2-0.8,0.2c-1.4,0.6-2.9,1.1-4.3,1.7
		c-0.3,0.1-0.5,0.3-0.7,0.5c-1,0.6-2,1.2-2.9,1.9c-0.5,0.4-1.1,0.8-1.6,1.2c-0.3,0.3-0.6,0.7-0.8,1c-0.2,0.4-0.6,0.9-0.3,1.3
		c0,0.1,0.1,0.1,0.2,0.2c0.1,0.1,0.2,0.1,0.3,0.2l3.6-1.5l0,0c-0.1,0-0.2-0.1-0.2-0.1c-0.5-0.3,0.1-0.9,0.2-1.2
		c0.6-0.8,1.3-1.5,2.3-2.1s1.9-1.3,2.9-1.8c0.3-0.2,1.1-0.5,0.8-0.4c-1,0.2-1.9,0.6-2.8,0.9c0.2-0.1,0.5-0.2,0.7-0.3
		c0.8-0.2,1.7-0.3,2.6-0.3L132.2,27.6L132.2,27.6z"/>
	<path id="path7929_1_" class="st11" d="M97.5,21.8c-0.5,1.5-0.7,3.1-1,4.7c-0.1,1.3-0.5,2.7-0.3,4.1c0,0.2,0.1,0.4,0.1,0.7
		c0.5,1.5,1.5,2.6,2.4,3.8c0.9,1.3,1.8,2.7,2.5,4.2c0.5,0.9,0.7,1.9,0.9,2.9c0,0.4,0.2,0.8,0.2,1.2c0,0.2-0.2,0.4-0.3,0.6
		c-0.8,1.1-1.9,1.9-2.9,2.8c-1.7,1.4-3.2,2.9-4.9,4.3c-0.7,0.7-1.5,1.2-2.1,2l3.5-1.6l0,0c0.6-0.7,1.3-1.2,2-1.9
		c1.6-1.5,3.1-2.9,4.8-4.3c1.1-0.9,2.3-1.8,3.1-3c0.3-0.8,0.2-1.2,0-2c-0.3-1-0.5-2-1.1-2.9c-0.8-1.4-1.7-2.8-2.6-4.2
		c-0.3-0.5-0.6-1-1-1.4c-0.5-0.7-1-1.4-1.2-2.3c-0.3-1.5-0.1-3,0.1-4.5c0.3-1.6,0.5-3.3,1.3-4.7L97.5,21.8L97.5,21.8z"/>
	<path id="path7931_1_" class="st7" d="M84.2,39.1c0,0.7,0.7,0.9,1.7,1.1c1.2,0.3,2.4,0.5,3.7,0.5c1.3-0.5,2.7-0.9,3.9-1.4
		c0.1-0.1,0-0.2-0.1-0.3c-0.2-0.4-0.8-0.8-1.3-1.1c-1.3-0.7-2.7-1.1-4.2-1.7c-1.1-0.3-2.7-0.7-4-0.6c-0.3,0-0.5,0-0.8,0.1
		c-2.4,0.6-5.3,1.5-6.9,2.9c-0.6,0.7,0.1,1.3,0.8,1.8c0.9,0.6,1.8,1.2,2.7,1.8c1.3,0.6,2.4,1.4,3.8,2c1,0.4,2.2,0.5,3.3,0.5
		c1.8-0.2,3.4-0.9,4.8-1.7l-4,1l0,0c-1.9,0.9,4.8-1.6,2.7-0.9c-1.2,0.1-2.2,0.1-3.2-0.3c-1.4-0.5-2.5-1.3-3.8-1.9
		c-0.9-0.6-1.8-1.1-2.7-1.7c-0.7-0.5-1.2-0.8-0.5-1.4c0.3-0.3,0.4-0.3,0.8-0.6c1.1-0.6,3.8-1.5-1.8,0.5c-0.2,0.1,0.4-0.1,0.6-0.2
		c0.2,0,0.5-0.1,0.7-0.1c1.3-0.1,2.7,0.2,3.8,0.5c1.4,0.5,2.8,1,4.1,1.6c0.4,0.3,0.7,0.5,1,0.8c0,0.1,0.1,0.1,0.1,0.2l-0.1,0.1
		c1.2-0.4,2.3-0.8,3.5-1.2c-0.1,0-0.2,0.1-0.4,0.1c-1,0.1-2.3-0.2-3.3-0.4c-0.9-0.2-1.3-0.2-1.3-0.9C88.1,37.8,84.2,39.1,84.2,39.1
		L84.2,39.1z"/>
	<path id="path7933_1_" class="st7" d="M65,39.3c0.8,0.1,1.5,0.3,2.4,0.3c0.2,0,0.4,0,0.6-0.1c3.1-0.7,5.1-1.5,6.5-3.1
		c0.2-0.3,0.6-0.8,0.2-1.1c-0.3-0.2-0.6-0.3-1-0.4c-1.8-0.3-3.7-0.3-5.5-0.1c-1.4,0.2-2.7,0.6-3.9,1c0.1,0.6-4.4,1-4.9,2.2
		c-0.1,0.2,0,0.3,0,0.6c0.9,1.2,2,2.3,3.2,3.4c0.2,0.2,0.4,0.3,0.7,0.5s0.6,0.3,1,0.4c1.3,0.6,2.6,1.1,4,1.6s3,0.8,4.6,0.9
		c0.2,0,0.4,0,0.7,0c0.6-0.1,1.1-0.2,1.6-0.4c1.5-0.5,2.9-1.1,4.4-1.6l-3.9,0.9l0,0c0.9-0.3,1.7-0.6,2.6-0.9
		c0.4-0.1-0.7,0.3-1.4,0.5c-0.2,0-0.4,0-0.6,0c-1.6-0.1-3.2-0.3-4.6-0.8c-1.6-0.5-3.5-1.2-4.8-1.9c-0.2-0.1-0.5-0.3-0.7-0.4
		c-1.2-1-2.3-2.1-2.9-3.3c0-0.2-0.1-0.2,0.1-0.4c0.6-0.8,4.5-1.7-2.3,0.6c1.3-0.4,2.6-0.9,3.9-1.2c1.8-0.2,3.5-0.3,5.3,0
		c0.1,0,0.6,0.1,0.7,0.2c0.3,0.2-0.2,0.7-0.3,0.9c-0.3,0.4-0.7,0.7-1.2,1c-0.2,0.1-0.8,0.4-0.5,0.3c0.9-0.3,4.5-1.5,2.5-0.9
		c-1.1,0.2-1.7,0.1-2.7-0.1L65,39.3L65,39.3z"/>
	<path id="path7949_1_" class="st12" d="M108.1,112.1c-0.5,0.1-1,0.1-1.4,0.2c-0.2,0.1-0.4,0.1-0.6,0.2s-0.4,0.2-0.5,0.3
		c-1.3,0.9-2.6,1.8-3.8,2.8c-0.3,0.2-0.5,1.2-0.6,1.5c0,0.5-0.2,1.1-0.1,1.6c0,0.1,0.3,0.6,0.3,0.8c0.4,0.9,0.8,1.4,1.6,2
		c0.7,0.7,1.4,1.3,2.4,1.7c1,0.3,2.1,0.3,3.1,0.2c0.9,0,1.7-0.2,2.5-0.5l3.2-2.8c-0.8,0.3-1.6,0.5-2.4,0.6c-1,0.1-2,0.2-3,0
		c-0.9-0.3-1.6-0.9-2.3-1.6c-0.6-0.6-1.2-1.2-1.4-1.9c-0.3-0.7-0.3-1.4-0.2-2.2c0-0.1,0-0.1,0.1-0.2c-0.5,0.1-1,0.1-1.5,0.2h-0.1
		c-0.3,0.2-0.5,0.3-0.8,0.5c-0.2,0.1,0.3-0.3,0.4-0.4s0.2-0.1,0.4-0.1c0.7-0.5,1.5-1,2.3-1.5c0.2-0.1-0.2,0.3-0.3,0.5
		c-0.2,0.3-0.2,0.5-0.3,0.7c0.4,0,0.9-0.1,1.3-0.1c0.8,0,1.7-0.1,2.3,0.4c0.6,0.5,1.1,1,1.9,1.4l3.5-2.6c-0.8-0.2-1.3-0.8-1.8-1.3
		c-0.7-0.7-1.6-0.7-2.6-0.6C109.1,112,108.6,112,108.1,112.1L108.1,112.1z"/>
	<path id="path7941_1_" class="st12" d="M51.1,111.4l-3.9,2c-0.6,1-0.9,2-1.1,3.1c0,1.2,0.9,2.1,1.6,3.1c0.2,0.5,1.4,1.4,1.5,1.9
		c0,0.1,0,0.1-0.1,0.1c-2.9,1.7-5.7,3.7-8.4,5.6c-0.9,0.7-1.7,1.4-2.6,2c-0.2,0.2-0.9,0.6-0.7,0.5c0.9-0.6,1.5-1,2.1-1.4l0.4-0.4
		c1-0.5,0.8-0.4-0.4,0.4l-2.7,2.5c2.9-1.4,5.1-3.5,7.6-5.3c0,0,0,0,0.1,0c-0.4,0.2-0.9,0.6-0.7,0.4c5.1-3.5,1.8-1.2,0.7-0.4
		c0.1-0.1,0.1-0.1,0.2-0.1c0.8-0.5,0.9-0.6,1.8-1.1c2.2-1.3,0.9-0.5,4.9-3.3c0.6-0.4,1.3-0.8,1.5-1.5c0-0.1,0-0.2-0.1-0.3
		c-0.3-0.6-1.3-1.3-1.6-1.8c-0.6-0.9-1.4-1.8-1.4-2.9C49.9,113.3,50.3,112.3,51.1,111.4L51.1,111.4z M121.1,103.7l-4,2
		c-1.1,1.5-1.8,3.1-2.5,4.8c-0.6,1.7-1.1,3.4-1.2,5.2c0,0.9,0.1,1.7,0.4,2.5c0.2,0.9,0.9,1.6,1.7,2.2c1,0.6,1.8,1.4,2.6,2.2
		c0.9,0.9,1.7,1,3,1.1c1.5,0,2.9-0.3,4.4-0.6c1.6-0.3,3.1-1,4.5-1.8l3-2.7c-1.3,0.8-2.7,1.5-4.3,1.8c-1.4,0.3-2.8,0.5-4.3,0.6
		c-1.2,0-1.9,0-2.7-0.8c-0.8-0.8-1.7-1.6-2.6-2.3c-0.8-0.5-1.3-1.2-1.5-2s-0.3-1.6-0.3-2.4c0-1.7,0.4-3.4,1-5
		C118.9,106.9,119.7,105.2,121.1,103.7z M69,111.5c-0.7,0.1-1.3,0.4-1.9,0.6c-0.6,0.3-1.3,0.7-2,0.8l-3.3,2.8
		c0.8-0.1,1.5-0.4,2.2-0.8c0.7-0.3,1.5-0.7,2.4-0.8c0.6,0.1,1,0.5,1.4,0.8c0.6,0.6,1.1,1.2,1.5,1.9c0.4,0.8,0.3,1.5-0.1,2.2
		c-0.3,0.6-0.7,1.2-1,1.9c-0.4,0.6-0.5,1.3-0.5,2s0.3,1.1,1.1,1.2c0.5,0,1.1,0.1,1.6,0.1l3.3-2.7c-0.5,0-1-0.1-1.6-0.1
		c-0.7,0-0.7-0.2-0.7-0.8c0-0.7,0.2-1.3,0.6-1.9c0.3-0.6,0.7-1.2,0.9-1.9c0.3-0.9,0.4-1.6-0.1-2.5c-0.4-0.8-0.9-1.5-1.6-2.1
		c-0.5-0.4-1-0.8-1.6-1C69.5,111.5,69.2,111.5,69,111.5L69,111.5z M58.7,113.2c-0.2,0-0.4,0.1-0.6,0.1c-0.8,0.1-1.5,0.3-2.3,0.4
		l-3.2,2.9c0.7-0.3,1.5-0.4,2.3-0.5c0.7-0.1,1.5-0.3,2.2,0c0.4,0.3,0.6,0.9,0.8,1.3c0.2,0.6,0.4,1.2,0.7,1.8c0.3,0.5,0.7,1,1,1.5
		c0.2,0.3,0,0.5-0.2,0.8c-0.1,0.2-0.1,0.3-0.2,0.5c-0.2,0.6-0.5,1.1-0.9,1.5c-0.7,0.4-1.2,1-1.7,1.5c-1.3,0.9-0.3,0.2,3.1-2.1
		l-3.1,2.9c3.9-2.6,2.7-1.6,4-2.8c0.5-0.5,1.1-1,1.7-1.5c0.4-0.5,0.7-1.1,0.9-1.6s0.5-1,0.2-1.6c-0.3-0.5-0.7-1-1-1.5
		c-0.3-0.6-0.5-1.1-0.7-1.7s-0.5-1.2-1-1.6C59.9,113.2,59.3,113.2,58.7,113.2L58.7,113.2z M93.2,113.4c-1.2,0.2-2.3,0.3-3.5,0.5
		c-1.4,0.2-2.8,0.3-4.1,0.7c-1.9,0.7-3.2,1.8-4.9,3.1c-0.1,0.1-0.2,0.2-0.2,0.3c-0.1,0.2-0.2,0.5-0.2,0.7c0,0.1,0,0.3,0.1,0.4
		c0.4,1,1.7,1.6,2.5,2.2c0.3,0.2,1,0.7,1.3,0.9c0.5,0.2,1.6,0.7,2,0.8c4.1,1.6-2-0.8,2.1,0.8c1.1,0.5,2.3,0.9,3.5,1.2
		c0.6,0.1,1,0.2,1.7,0.2c0.5,0,0.9,0,1.4,0c0.3,0,0.7-0.2,0.9-0.3c3.8-2.7,3.3-1.4,3.9-3.1c0.1-0.7,0-1.5-0.5-2.1
		c-0.1-0.1-0.3-0.2-0.4-0.4c-0.9-0.6-2.1-0.8-3.1-1.2c-0.7-0.4-0.7-1.1-1.1-1.7c-0.4-0.4-1-0.5-1.5-0.8l0,0H93c0,0,0,0,0.1,0
		l-3.7,2.3c0,0.1,0.1,0.2,0.1,0.3c0.5,0.2,1,0.3,1.5,0.6c0.4,0.6,0.6,1.4,1.3,1.8c1,0.5,2.1,0.6,3.1,1.2c0.1,0.1,0.2,0.2,0.3,0.3
		c0.1,0.1,0.2,0.3,0.3,0.5c0.2,0,0.5,0,0.8,0.1c0.6,0,1.2,0,1.7-0.2c0.2-0.1,0.4-0.2,0.6-0.4c0.1-0.1-0.2,0.2-0.3,0.3
		c-0.1,0-0.1,0.1-0.2,0.1c-2.8,1.9-3.3,2.7-2.5,1.5c0.1-0.4,0.2-0.9,0-1.3c-0.3,0-0.5-0.1-0.9-0.1c-1.2-0.2-2.4-0.7-3.5-1.1
		c-1.8-0.7-3.8-1.3-5.3-2.5c-0.7-0.5-1.9-1.2-2.2-2c0.8-0.1,1.7-0.2,2.5-0.3c1.1-0.1,2.2-0.3,3.4-0.4L93.2,113.4z M84.5,115.7
		c0.1-0.1-0.2,0.2-0.3,0.2c-0.2,0.2-0.2,0.3-0.3,0.6c0,0.1,0,0.2,0,0.3c0,0,0,0,0,0.1c-0.5,0.1-1,0.2-1.6,0.4
		C81,117.9,78.5,119.6,84.5,115.7L84.5,115.7z M50.3,120.8L50.3,120.8c0,0-0.9,0.6-2.9,2c-0.2,0.1,0.4-0.3,0.6-0.4
		c0.6-0.4,0.3-0.2,0.8-0.6c0.1-0.1,0.1-0.1,0.2-0.2l0,0c0.1-0.1,0.2-0.1,0.3-0.2C49.9,121.1,50.3,120.8,50.3,120.8L50.3,120.8z"/>
	<path id="path891_1_" class="st13" d="M33.7,108.1c2.9,0.8,5.8,1.6,8.7,2.3c3.2,0.8,6.3,1.7,9.6,2c0.6,0.1,1.1,0.1,1.7,0.1
		c1.6,0,3.6,0.3,5.1,0c0.9-0.2,1.2-0.4,2-0.8c2.4-1.5,5-2.9,7.3-4.4c0.1-0.1,1.8-1.9,1.8-1.9c1-1.1,2.1-2.3,3.2-3.4
		c1.2-1.4,2.9-2.6,3.8-4.1c0.5-0.8,0.5-1.3,0.8-2.2c0.1-0.3,0.1-0.7,0.2-1l-6.7,3.6l0,0c-0.1,0.3-0.1,0.6-0.2,0.9
		c-0.3,0.9-0.3,1.1-0.9,2c-1,1.5-2.5,2.7-3.7,4c-1.1,1.1-2.1,2.3-3.2,3.4c-0.3,0.3-0.7,0.7-1,1c-2,1.8-4.4,2.8,4.5-2.3
		c-0.5,0.3-1.1,0.7-1.7,0.9c-1.6,0.5-3.5,0.2-5.2,0.3c-1.1-0.1-2.3-0.1-3.4-0.2c-2.8-0.3-5.4-1-8.1-1.6c-1.7-0.5-2.4-0.7-4-1.3
		c-0.5-0.2-1-0.4-1.5-0.6c-0.7-0.3-1.5-0.5-2.2-1L33.7,108.1L33.7,108.1z"/>
</g>
<g>
	<path id="path7833_3_" class="st14" d="M44.2,9.5c0,0.1,0.1,0.2,0,0.4c-0.2,0.6-1.8,1.7-2.4,2.2c-3.2,2.5-6.9,4.7-10.9,6.7
		c-1,0.5-2,0.9-3,1.4c-0.9,0.4-1.8,0.8-2.8,1.2c-0.4,0.2,1.7-0.5,1.2-0.6c-0.8,0-1.6,0.4-2.4,0.5c-0.7,0.1-1.4,0.3-2.1,0.2
		c-1.6,0-2.4-0.4-3.7-0.9c-0.5-0.3-1-0.6-1.4-0.9c-1.2-0.9-1.9-2-2.2-3.1c-0.2-0.9-0.1-1.2,0-2.1c0.2-0.4,0.4-0.8,0.6-1.1
		c0.3-0.4,0.7-0.7,1.1-1.1c1.2-1,1.8-1.3,3.5-2c0.8-0.3,1.6-0.7,2.5-0.9c0.5-0.1-0.7,0.4-1,0.6c5.1-1.2,10.5-1.7,15.9-1.9
		c3-0.1,6.1-0.3,9.1,0.1c0.4,0.1,0.9,0.1,1.3,0.2c1.5,0.3,2.9,0.8,4.2,1.4c0.6,0.3,1.4,0.9,1.9,1.2c1.4,1,2.7,2.1,4.3,3
		c0.4,0.2,0.8,0.5,1.3,0.6c0.6,0.2,1.2,0.4,1.7,0.6c0.7,0.2,1.3,0.4,2,0.5c0.9,0.2,1.7,0.3,2.6,0.4c2.9,0.4,5.7,0.5,8.7,0.4
		c0.9,0,1.7-0.1,2.6-0.1c0.8-0.1,1.5-0.1,2.3-0.2c5.2-0.8,10.3-3,14.8-4.6c1.8-1,1-0.5,2.4-1.6l-4.8,1.3l0,0c-1.3,1-0.6,0.5-2.3,1.4
		c0.8-0.3,1.6-0.7,2.5-0.8c0.8-0.1-1.4,0.5-2.1,0.8c-2.8,0.9-5.8,1.7-9,2c-0.9,0.1-1.8,0.1-2.7,0.2c-4.4,0.1-8.8-0.2-12.8-1.3
		c-1.3-0.5-1.7-0.6-2.8-1.2c-1.6-0.9-2.8-2-4.2-3c-0.9-0.6-1.7-1.3-2.8-1.8c-1-0.4-2.3-0.7-3.4-1c-0.5-0.1-0.9-0.2-1.4-0.2
		c-0.8-0.1-2.6-0.2-3.3-0.2c-0.6,0-1.2,0-1.8,0c-2,0.1-2.3,0.1-4.3,0.1c-5.5,0.3-11,0.8-16.2,2c-3.2,1-8.8,2.5-11.7,4.2
		c-0.8,0.5-2.1,1.6-2.6,2.3c-0.3,0.4-0.5,0.8-0.7,1.2c-0.1,1-0.2,1.2,0.1,2.2c0.4,1.2,1.2,2.3,2.4,3.2c0.4,0.3,1,0.6,1.5,0.9
		c1.3,0.5,2.4,1,4,1c0.8,0,1.5-0.2,2.3-0.3c4.3-0.7,8.1-2.3,11.7-3.9c1-0.5,2-0.9,2.9-1.4c4.2-2.1,8.1-4.4,11.6-6.9
		c0.4-0.3,0.9-0.6,1.3-1c0.8-0.6,1.6-1.2,1.6-2L44.2,9.5L44.2,9.5z"/>
	<path id="path7835_3_" class="st15" d="M44.7,14.6c-1.9,1.3-4.3,2.4-6.8,3.5c-2.7,1.2-5.7,2.4-7.3,3.8c-0.2,0.2-0.4,0.5-0.6,0.7
		c-0.6,1-0.8,2.1-0.4,3.1c0.2,0.6,0.6,1,1,1.6c1.1,1.6,3.3,3,5.2,4.5c1.4,1.1,3,2.3,3.2,3.6c0,0.3,0,0.5-0.1,0.8
		c-0.5,1.1-1.4,1.7-3.9,2.4c-0.5,0.1-2.2,0.5-1.6,0.4c1.8-0.4,3.6-0.8,5.4-1.2c-4.9,0.7-10.1,1-15.3,1.2c-1.7,0.1-3.3,0-5-0.2
		l-7.4,1.8l0,0c1.9,0.2,3.5,0.3,5.5,0.2c5.2-0.2,10.4-0.6,15.4-1.1c3.6-0.7,11.3-1.7,13.6-3.5c0.7-0.5,0.7-0.9,1-1.5
		c0-0.3,0.1-0.5,0-0.8c-0.2-1.3-2-2.5-3.4-3.6c-1.9-1.4-4.2-2.8-5.2-4.4c-1-1.5-1.5-3-0.3-4.5c0.6-0.6,0.6-0.8,1.5-1.3
		c1.6-1.1,3.9-2.1,6.1-3c2.7-1.2,5.3-2.4,7.8-3.7L44.7,14.6L44.7,14.6z"/>
	<path id="path7837_3_" class="st14" d="M25,26.6c0.2,0,0.3-0.1,0.5-0.1c0.6-0.2,1.6-0.6,2.2-0.7c1.6-0.5,3.3-0.8,5-1.2
		c2.1-0.4,4.3-0.7,6.5-0.7c0.4,0,0.7,0,1.1,0.1c2.2,0.2,3,1,4.2,2c1,0.9,1.9,1.9,2.9,2.7c0.9,0.7,1.8,0.6,3.1,0.4
		c0.6-0.2,0.3-0.1,0.9-0.2l4.4-2.2l0,0c-0.5,0.2-0.2,0.1-0.9,0.3c-0.6,0.2-1.6,0.5-2.3,0.2c-0.2-0.1-0.3-0.1-0.4-0.2
		c-1.1-0.8-2-1.8-3.1-2.7c-1.1-1.3-1.9-2-4.3-2.3c-0.4,0-0.8-0.1-1.2-0.1c-2.3-0.1-4.6,0.3-6.8,0.7c-1.6,0.3-3.3,0.7-4.9,1.1
		c-1,0.3-1,0.3-1.9,0.6c-0.1,0-0.3,0.1-0.4,0.1L25,26.6L25,26.6z"/>
	<path id="path7885_3_" class="st14" d="M51.8,32.4c0.7,0.1,1.2,0.4,1.7,0.6c0.6,0.4,1,0.8,1,1.4c-0.2,1.1-0.6,2.2-1.1,3.3
		c-0.5,0.8-1.3,1.4-1.9,2.2c-0.3,0.3-0.6,0.9-0.8,1.2c-0.5,0.7-0.6,1.5-1.3,2.1l3.1-2.2l0,0c0.5-0.7,0.7-1.4,1.1-2.1
		c0.3-0.5,0.5-0.7,0.9-1.2c0.6-0.7,1.4-1.4,1.8-2.2c0.5-1.1,0.9-2.3,1.1-3.4c-0.1-0.7-0.5-1.1-1.2-1.5c-0.5-0.3-1.1-0.6-1.8-0.7
		L51.8,32.4L51.8,32.4z"/>
	<path id="path7889_3_" class="st16" d="M67.2,31.2c-1.3-0.1-2.6-0.1-3.9,0c-4.6,0.1-4.3,0.7-9.7,2.5c-0.2,0.3-0.5,0.5-1,0.6
		c-0.2,0.1-0.6,0.2-0.5,0.1c5.9-1.9,8.1-2.4,5.5-1.8c-0.8,0.1-1.6,0.2-2.4,0.3l-6,2.4l0,0c0.8-0.1,1.6-0.2,2.5-0.3
		c3.6-0.6,6.8-1.6,8.9-3.1c-2,0.6-4,1.3-6.1,1.9c-0.1,0,0.2-0.1,0.4-0.2c0.7-0.2,1.6-0.2,2.4-0.2c1.2,0,2.5-0.1,3.7,0L67.2,31.2
		L67.2,31.2z"/>
	<path id="path7915_3_" class="st17" d="M106.1,27.6c-0.1,0-0.1,0.1-0.2,0.1c-0.2,0.1-0.8,0.3-1,0.4c-0.3,0.1-1.1,0.2-0.8,0.2
		c16-3.7,22.8-5.1,15.5-3.6c-2.9,0.6-6,0.9-9.1,1.1c-2.9,0.2-5.7,0.2-8.6,0.2c-1.1-0.1-2.3,0-3.4-0.1c-0.6,0-0.9-0.1-1.4-0.1
		c-0.8-0.1-1.4-0.3-2-0.5l-18.6,4.6l0,0c0.8,0.3,1.6,0.6,2.7,0.8c1.8,0.3,3.7,0.4,5.6,0.3c3-0.1,6.1-0.1,9.1-0.2
		c3.2-0.2,6.4-0.4,9.4-0.9c8.3-1.2,1.8-0.2,20.7-4.6c0.9-0.2,1.5-0.5,2.4-0.7c0.2,0,0.4-0.1,0.6-0.1L106.1,27.6L106.1,27.6z"/>
	<path id="path7919_3_" class="st14" d="M139.9,24.5c0.1,0.2,0,0.3-0.2,0.4c4.4-1.7,8.7-3.5,13.1-5.1c0.1,0-0.1,0.2-0.3,0.2
		c-0.1,0-0.3,0-0.4,0.1c-1.6,0-3.2-0.1-4.7-0.3c-1.2-0.1-2.4-0.3-3.5-0.6c-0.5-0.2-1.2-0.5-1.7-0.7c-1.8-0.8-3.1-0.8-5.2-0.6
		c-1.6,0.1-3.2,0.4-4.8,0.6c-0.5,0-1.2,0.3-1.7,0.1l-13.5,5l0,0c0.9,0.6,1.6,0.9,3,0.6c1.6-0.2,3.2-0.6,4.9-0.7
		c0.8-0.1,1.6-0.2,2.4-0.3c0.8,0,1.6,0.1,2.3,0.3c1.1,0.4,0.7,0.2,1.8,0.7c1.1,0.4,2.2,0.9,3.6,1c0.7,0,1,0,1.7,0.1
		c0.9,0.1,1.8,0.3,2.7,0.4c0.2,0,0.3,0,0.5,0.1c0.2,0,0.4,0.2,0.6,0.2c24.2-8.8,12.6-1.9,13.7-6L139.9,24.5L139.9,24.5z"/>
	<path id="path7923_3_" class="st14" d="M104.8,38.9c0.2,0,0.3,0.1,0.5,0.1s0.5,0,0.7,0.1c0.5,0,0.9,0.1,1.4,0.2
		c0.4,0,1.6,0.1,1.9,0.1c0.8,0,1.7,0.1,2.5,0.1c0.4,0,0.7,0,1.1,0c0.9,0,1.1,0,2,0c1.3,0,2.6,0,3.9,0c0.8,0.1,1.3,0.1,2,0.3
		c0.3,0.1,0.7,0.1,1,0.2c0.7,0.1,1.8,0.2,2.6,0.3c1,0.1,2,0.2,3,0.3c1.3,0.2,2.7,0,4-0.1l12.5-5.8l0,0c-0.9,0.1-1.8,0.1-2.7,0.2
		c-0.2,0-0.5,0.1-0.7,0.1c-0.3,0-0.5,0-0.8,0c-2.2,0-4.4-0.1-6.6-0.5c-1.5-0.3-0.6-0.1-2.2-0.4c-0.3-0.1-0.7-0.1-1-0.2
		c-0.9-0.1-1.9,0-2.9,0c-0.8,0-1.2,0-2,0c-0.3,0-0.6,0-0.9,0c-0.9,0-1.7,0-2.6,0c-1.2-0.1-2.4-0.1-3.5-0.5L104.8,38.9L104.8,38.9z"
		/>
	<path id="path7927_3_" class="st14" d="M131.5,25.4c-0.9,0-1.9,0.1-2.8,0.3c-0.3,0.1-0.5,0.2-0.8,0.2c-1.4,0.6-2.9,1.1-4.3,1.7
		c-0.3,0.1-0.5,0.3-0.7,0.5c-1,0.6-2,1.2-2.9,1.9c-0.5,0.4-1.1,0.8-1.6,1.2c-0.3,0.3-0.6,0.7-0.8,1c-0.2,0.4-0.6,0.9-0.3,1.3
		c0,0.1,0.1,0.1,0.2,0.2c0.1,0.1,0.2,0.1,0.3,0.2l3.6-1.5l0,0c-0.1,0-0.2-0.1-0.2-0.1c-0.5-0.3,0.1-0.9,0.2-1.2
		c0.6-0.8,1.3-1.5,2.3-2.1s1.9-1.3,2.9-1.8c0.3-0.2,1.1-0.5,0.8-0.4c-1,0.2-1.9,0.6-2.8,0.9c0.2-0.1,0.5-0.2,0.7-0.3
		c0.8-0.2,1.7-0.3,2.6-0.3L131.5,25.4L131.5,25.4z"/>
	<path id="path7929_3_" class="st18" d="M96.9,19.6c-0.5,1.5-0.7,3.1-1,4.7c-0.1,1.3-0.5,2.7-0.3,4.1c0,0.2,0.1,0.4,0.1,0.7
		c0.5,1.5,1.5,2.6,2.4,3.8c0.9,1.3,1.8,2.7,2.5,4.2c0.5,0.9,0.7,1.9,0.9,2.9c0,0.4,0.2,0.8,0.2,1.2c0,0.2-0.2,0.4-0.3,0.6
		c-0.8,1.1-1.9,1.9-2.9,2.8c-1.7,1.4-3.2,2.9-4.9,4.3c-0.7,0.7-1.5,1.2-2.1,2l3.5-1.6l0,0c0.6-0.7,1.3-1.2,2-1.9
		c1.6-1.5,3.1-2.9,4.8-4.3c1.1-0.9,2.3-1.8,3.1-3c0.3-0.8,0.2-1.2,0-2c-0.3-1-0.5-2-1.1-2.9c-0.8-1.4-1.7-2.8-2.6-4.2
		c-0.3-0.5-0.6-1-1-1.4c-0.5-0.7-1-1.4-1.2-2.3c-0.3-1.5-0.1-3,0.1-4.5c0.3-1.6,0.5-3.3,1.3-4.7L96.9,19.6L96.9,19.6z"/>
	<path id="path7931_3_" class="st14" d="M83.5,36.9c0,0.7,0.7,0.9,1.7,1.1c1.2,0.3,2.4,0.5,3.7,0.5c1.3-0.5,2.7-0.9,3.9-1.4
		c0.1-0.1,0-0.2-0.1-0.3c-0.2-0.4-0.8-0.8-1.3-1.1c-1.3-0.7-2.7-1.1-4.2-1.7c-1.1-0.3-2.7-0.7-4-0.6c-0.3,0-0.5,0-0.8,0.1
		c-2.4,0.6-5.3,1.5-6.9,2.9c-0.6,0.7,0.1,1.3,0.8,1.8c0.9,0.6,1.8,1.2,2.7,1.8c1.3,0.6,2.4,1.4,3.8,2c1,0.4,2.2,0.5,3.3,0.5
		c1.8-0.2,3.4-0.9,4.8-1.7l-4,1l0,0c-1.9,0.9,4.8-1.6,2.7-0.9c-1.2,0.1-2.2,0.1-3.2-0.3c-1.4-0.5-2.5-1.3-3.8-1.9
		c-0.9-0.6-1.8-1.1-2.7-1.7c-0.7-0.5-1.2-0.8-0.5-1.4c0.3-0.3,0.4-0.3,0.8-0.6c1.1-0.6,3.8-1.5-1.8,0.5c-0.2,0.1,0.4-0.1,0.6-0.2
		c0.2,0,0.5-0.1,0.7-0.1c1.3-0.1,2.7,0.2,3.8,0.5c1.4,0.5,2.8,1,4.1,1.6c0.4,0.3,0.7,0.5,1,0.8c0,0.1,0.1,0.1,0.1,0.2l-0.1,0.1
		c1.2-0.4,2.3-0.8,3.5-1.2c-0.1,0-0.2,0.1-0.4,0.1c-1,0.1-2.3-0.2-3.3-0.4c-0.9-0.2-1.3-0.2-1.3-0.9C87.4,35.6,83.5,36.9,83.5,36.9
		L83.5,36.9z"/>
	<path id="path7933_3_" class="st14" d="M64.4,37.1c0.8,0.1,1.5,0.3,2.4,0.3c0.2,0,0.4,0,0.6-0.1c3.1-0.7,5.1-1.5,6.5-3.1
		c0.2-0.3,0.6-0.8,0.2-1.1c-0.3-0.2-0.6-0.3-1-0.4c-1.8-0.3-3.7-0.3-5.5-0.1c-1.4,0.2-2.7,0.6-3.9,1c0.1,0.6-4.4,1-4.9,2.2
		c-0.1,0.2,0,0.3,0,0.6c0.9,1.2,2,2.3,3.2,3.4c0.2,0.2,0.4,0.3,0.7,0.5s0.6,0.3,1,0.4c1.3,0.6,2.6,1.1,4,1.6s3,0.8,4.6,0.9
		c0.2,0,0.4,0,0.7,0c0.6-0.1,1.1-0.2,1.6-0.4c1.5-0.5,2.9-1.1,4.4-1.6l-3.8,0.9l0,0c0.9-0.3,1.7-0.6,2.6-0.9
		c0.4-0.1-0.7,0.3-1.4,0.5c-0.2,0-0.4,0-0.6,0c-1.6-0.1-3.2-0.3-4.6-0.8c-1.6-0.5-3.5-1.2-4.8-1.9c-0.2-0.1-0.5-0.3-0.7-0.4
		c-1.2-1-2.3-2.1-2.9-3.3c0-0.2-0.1-0.2,0.1-0.4c0.6-0.8,4.5-1.7-2.3,0.6c1.3-0.4,2.6-0.9,3.9-1.2c1.8-0.2,3.5-0.3,5.3,0
		c0.1,0,0.6,0.1,0.7,0.2c0.3,0.2-0.2,0.7-0.3,0.9c-0.3,0.4-0.7,0.7-1.2,1c-0.2,0.1-0.8,0.4-0.5,0.3c0.9-0.3,4.5-1.5,2.5-0.9
		c-1.1,0.2-1.7,0.1-2.7-0.1L64.4,37.1L64.4,37.1z"/>
	<path id="path7949_3_" class="st19" d="M107.5,109.9c-0.5,0.1-1,0.1-1.4,0.2c-0.2,0.1-0.4,0.1-0.6,0.2s-0.4,0.2-0.5,0.3
		c-1.3,0.9-2.6,1.8-3.8,2.8c-0.3,0.2-0.5,1.2-0.6,1.5c0,0.5-0.2,1.1-0.1,1.6c0,0.1,0.3,0.6,0.3,0.8c0.4,0.9,0.8,1.4,1.6,2
		c0.7,0.7,1.4,1.3,2.4,1.7c1,0.3,2.1,0.3,3.1,0.2c0.9,0,1.7-0.2,2.5-0.5l3.2-2.8c-0.8,0.3-1.6,0.5-2.4,0.6c-1,0.1-2,0.2-3,0
		c-0.9-0.3-1.6-0.9-2.3-1.6c-0.6-0.6-1.2-1.2-1.4-1.9c-0.3-0.7-0.3-1.4-0.2-2.2c0-0.1,0-0.1,0.1-0.2c-0.5,0.1-1,0.1-1.5,0.2h-0.1
		c-0.3,0.2-0.5,0.3-0.8,0.5c-0.2,0.1,0.3-0.3,0.4-0.4s0.2-0.1,0.4-0.1c0.7-0.5,1.5-1,2.3-1.5c0.2-0.1-0.2,0.3-0.3,0.5
		c-0.2,0.3-0.2,0.5-0.3,0.7c0.4,0,0.9-0.1,1.3-0.1c0.8,0,1.7-0.1,2.3,0.4c0.6,0.5,1.1,1,1.9,1.4l3.5-2.6c-0.8-0.2-1.3-0.8-1.8-1.3
		c-0.7-0.7-1.6-0.7-2.6-0.6C108.4,109.8,108,109.8,107.5,109.9L107.5,109.9z"/>
	<path id="path7941_3_" class="st19" d="M50.4,109.2l-3.9,2c-0.6,1-0.9,2-1.1,3.1c0,1.2,0.9,2.1,1.6,3.1c0.2,0.5,1.4,1.4,1.5,1.9
		c0,0.1,0,0.1-0.1,0.1c-2.9,1.7-5.7,3.7-8.4,5.6c-0.9,0.7-1.7,1.4-2.6,2c-0.2,0.2-0.9,0.6-0.7,0.5c0.9-0.6,1.5-1,2.1-1.4l0.4-0.4
		c1-0.5,0.8-0.4-0.4,0.4l-2.7,2.5c2.9-1.4,5.1-3.5,7.6-5.3c0,0,0,0,0.1,0c-0.4,0.2-0.9,0.6-0.7,0.4c5.1-3.5,1.8-1.2,0.7-0.4
		c0.1-0.1,0.1-0.1,0.2-0.1c0.8-0.5,0.9-0.6,1.8-1.1c2.2-1.3,0.9-0.5,4.9-3.3c0.6-0.4,1.3-0.8,1.5-1.5c0-0.1,0-0.2-0.1-0.3
		c-0.3-0.6-1.3-1.3-1.6-1.8c-0.6-0.9-1.4-1.8-1.4-2.9C49.3,111.2,49.6,110.1,50.4,109.2L50.4,109.2z M120.4,101.5l-4,2
		c-1.1,1.5-1.8,3.1-2.5,4.8c-0.6,1.7-1.1,3.4-1.2,5.2c0,0.9,0.1,1.7,0.4,2.5c0.2,0.9,0.9,1.6,1.7,2.2c1,0.6,1.8,1.4,2.6,2.2
		c0.9,0.9,1.7,1,3,1.1c1.5,0,2.9-0.3,4.4-0.6c1.6-0.3,3.1-1,4.5-1.8l3-2.7c-1.3,0.8-2.7,1.5-4.3,1.8c-1.4,0.3-2.8,0.5-4.3,0.6
		c-1.2,0-1.9,0-2.7-0.8c-0.8-0.8-1.7-1.6-2.6-2.3c-0.8-0.5-1.3-1.2-1.5-2s-0.3-1.6-0.3-2.4c0-1.7,0.4-3.4,1-5
		C118.2,104.7,119,103,120.4,101.5z M68.4,109.4c-0.7,0.1-1.3,0.4-1.9,0.6c-0.6,0.3-1.3,0.7-2,0.8l-3.3,2.8c0.8-0.1,1.5-0.4,2.2-0.8
		c0.7-0.3,1.5-0.7,2.4-0.8c0.6,0.1,1,0.5,1.4,0.8c0.6,0.6,1.1,1.2,1.5,1.9c0.4,0.8,0.3,1.5-0.1,2.2c-0.3,0.6-0.7,1.2-1,1.9
		c-0.4,0.6-0.5,1.3-0.5,2s0.3,1.1,1.1,1.2c0.5,0,1.1,0.1,1.6,0.1l3.3-2.7c-0.5,0-1-0.1-1.6-0.1c-0.7,0-0.7-0.2-0.7-0.8
		c0-0.7,0.2-1.3,0.6-1.9c0.3-0.6,0.7-1.2,0.9-1.9c0.3-0.9,0.4-1.6-0.1-2.5c-0.4-0.8-0.9-1.5-1.6-2.1c-0.5-0.4-1-0.8-1.6-1
		C68.8,109.3,68.6,109.3,68.4,109.4L68.4,109.4z M58.1,111c-0.2,0-0.4,0.1-0.6,0.1c-0.8,0.1-1.5,0.3-2.3,0.4l-3.2,2.9
		c0.7-0.3,1.5-0.4,2.3-0.5c0.7-0.1,1.5-0.3,2.2,0c0.4,0.3,0.6,0.9,0.8,1.3c0.2,0.6,0.4,1.2,0.7,1.8c0.3,0.5,0.7,1,1,1.5
		c0.2,0.3,0,0.5-0.2,0.8c-0.1,0.2-0.1,0.3-0.2,0.5c-0.2,0.6-0.5,1.1-0.9,1.5c-0.7,0.4-1.2,1-1.7,1.5c-1.3,0.9-0.3,0.2,3.1-2.1
		l-3.1,2.9c3.9-2.6,2.7-1.6,4-2.8c0.5-0.5,1.1-1,1.7-1.5c0.4-0.5,0.7-1.1,0.9-1.6s0.5-1,0.2-1.6c-0.3-0.5-0.7-1-1-1.5
		c-0.3-0.6-0.5-1.1-0.7-1.7s-0.5-1.2-1-1.6C59.2,111,58.7,111,58.1,111L58.1,111z M92.5,111.2c-1.2,0.2-2.3,0.3-3.5,0.5
		c-1.4,0.2-2.8,0.3-4.1,0.7c-1.9,0.7-3.2,1.8-4.9,3.1c-0.1,0.1-0.2,0.2-0.2,0.3c-0.1,0.2-0.2,0.5-0.2,0.7c0,0.1,0,0.3,0.1,0.4
		c0.4,1,1.7,1.6,2.5,2.2c0.3,0.2,1,0.7,1.3,0.9c0.5,0.2,1.6,0.7,2,0.8c4.1,1.6-2-0.8,2.1,0.8c1.1,0.5,2.3,0.9,3.5,1.2
		c0.6,0.1,1,0.2,1.7,0.2c0.5,0,0.9,0,1.4,0c0.3,0,0.7-0.2,0.9-0.3c3.8-2.7,3.3-1.4,3.9-3.1c0.1-0.7,0-1.5-0.5-2.1
		c-0.1-0.1-0.3-0.2-0.4-0.4c-0.9-0.6-2.1-0.8-3.1-1.2c-0.7-0.4-0.7-1.1-1.1-1.7c-0.4-0.4-1-0.5-1.5-0.8l0,0h-0.1c0,0,0,0,0.1,0
		l-3.7,2.3c0,0.1,0.1,0.2,0.1,0.3c0.5,0.2,1,0.3,1.5,0.6c0.4,0.6,0.6,1.4,1.3,1.8c1,0.5,2.1,0.6,3.1,1.2c0.1,0.1,0.2,0.2,0.3,0.3
		c0.1,0.1,0.2,0.3,0.3,0.5c0.2,0,0.5,0,0.8,0.1c0.6,0,1.2,0,1.7-0.2c0.2-0.1,0.4-0.2,0.6-0.4c0.1-0.1-0.2,0.2-0.3,0.3
		c-0.1,0-0.1,0.1-0.2,0.1c-2.8,1.9-3.3,2.7-2.5,1.5c0.1-0.4,0.2-0.9,0-1.3c-0.3,0-0.5-0.1-0.9-0.1c-1.2-0.2-2.4-0.7-3.5-1.1
		c-1.8-0.7-3.8-1.3-5.3-2.5c-0.7-0.5-1.9-1.2-2.2-2c0.8-0.1,1.7-0.2,2.5-0.3c1.1-0.1,2.2-0.3,3.4-0.4L92.5,111.2z M83.9,113.5
		c0.1-0.1-0.2,0.2-0.3,0.2c-0.2,0.2-0.2,0.3-0.3,0.6c0,0.1,0,0.2,0,0.3c0,0,0,0,0,0.1c-0.5,0.1-1,0.2-1.6,0.4
		C80.4,115.7,77.9,117.4,83.9,113.5L83.9,113.5z M49.7,118.6L49.7,118.6c0,0-0.9,0.6-2.9,2c-0.2,0.1,0.4-0.3,0.6-0.4
		c0.6-0.4,0.3-0.2,0.8-0.6c0.1-0.1,0.1-0.1,0.2-0.2l0,0c0.1-0.1,0.2-0.1,0.3-0.2C49.3,118.9,49.6,118.6,49.7,118.6L49.7,118.6z"/>
	<path id="path891_3_" class="st20" d="M33.1,105.9c2.9,0.8,5.8,1.6,8.7,2.3c3.2,0.8,6.3,1.7,9.6,2c0.6,0.1,1.1,0.1,1.7,0.1
		c1.6,0,3.6,0.3,5.1,0c0.9-0.2,1.2-0.4,2-0.8c2.4-1.5,5-2.9,7.3-4.4c0.1-0.1,1.8-1.9,1.8-1.9c1-1.1,2.1-2.3,3.2-3.4
		c1.2-1.4,2.9-2.6,3.8-4.1c0.5-0.8,0.5-1.3,0.8-2.2c0.1-0.3,0.1-0.7,0.2-1l-6.8,3.4l0,0c-0.1,0.3-0.1,0.6-0.2,0.9
		c-0.3,0.9-0.3,1.1-0.9,2c-1,1.5-2.5,2.7-3.7,4c-1.1,1.1-2.1,2.3-3.2,3.4c-0.3,0.3-0.7,0.7-1,1c-2,1.8-4.4,2.8,4.5-2.3
		c-0.5,0.3-1.1,0.7-1.7,0.9c-1.6,0.5-3.5,0.2-5.2,0.3c-1.1-0.1-2.3-0.1-3.4-0.2c-2.8-0.3-5.4-1-8.1-1.6c-1.7-0.5-2.4-0.7-4-1.3
		c-0.5-0.2-1-0.4-1.5-0.6c-0.7-0.3-1.5-0.5-2.2-1L33.1,105.9L33.1,105.9z"/>
</g>
</svg>
